<?xml version="1.0" standalone="no"?><!DOCTYPE svg PUBLIC "-//W3C//DTD SVG 1.1//EN" "http://www.w3.org/Graphics/SVG/1.1/DTD/svg11.dtd"><svg t="1619594050435" class="icon" viewBox="0 0 1024 1024" version="1.1" xmlns="http://www.w3.org/2000/svg" p-id="10213" xmlns:xlink="http://www.w3.org/1999/xlink" width="128" height="128"><defs><style type="text/css"></style></defs><path d="M142.5021 341.595a5.043 5.043 0 0 0 7.155 1.411l51.862-36.524a5.043 5.043 0 0 0 1.226-7.018c-43.217-61.667-77.704-108.218-102.499-138.363a5.044 5.044 0 0 0-6.708-0.983L46.7901 191.526a5.04 5.04 0 0 0-1.215 7.222c25.119 33.335 57.73 81.396 96.927 142.847zM736.6291 789.493a5.026 5.026 0 0 0-4.187-2.04c-97.314 2.582-194.1 3.892-287.667 3.892-46.73 0-93.647-0.328-139.375-0.97-67.418-1.879-116.384-25.502-145.569-70.221V409.737a5.044 5.044 0 0 0-5.043-5.043H11.6191a5.044 5.044 0 0 0-5.044 5.043v54.053a5.044 5.044 0 0 0 5.044 5.043h81.88V707.75c-19.622 18.198-50.542 47.682-91.959 87.69a5.041 5.041 0 0 0-1.018 5.86l29.949 60.63a5.039 5.039 0 0 0 4.523 2.809c1.497 0 2.93-0.668 3.894-1.84 35.417-43.038 63.23-74.355 82.79-93.225 35.306 53.403 94.055 81.205 174.708 82.646 101.066 2.181 205.401 3.288 310.105 3.288 34.862 0 70.415-0.124 105.667-0.366a5.042 5.042 0 0 0 4.697-3.296c8.293-22.455 15.191-41.921 20.507-57.857a5.045 5.045 0 0 0-0.733-4.596z"  p-id="10214"></path><path d="M293.2101 774.361a5.03 5.03 0 0 0 4.019 1.993 5.03 5.03 0 0 0 2.928-0.939c13.393-9.563 26.94-18.033 40.266-25.176 46.884-22.712 93.902-43.037 139.743-60.406a5.042 5.042 0 0 0 3.229-5.245c-1.859-17.618-3.06-36.179-3.573-55.2 68.494 45.008 130.374 87.537 184.782 127.013a5.045 5.045 0 0 0 7.065-1.151l36.524-51.131a5.043 5.043 0 0 0-1.347-7.155c-33.025-21.555-74.446-47.822-123.215-78.142a16019.625 16019.625 0 0 1 128.915-52.47 5.04 5.04 0 0 0 2.174-7.677l-37.255-50.403a5.046 5.046 0 0 0-6.463-1.435c-49.978 27.13-99.437 52.487-147.052 75.398a49790.846 49790.846 0 0 0-107.241-65.056 5.045 5.045 0 0 0-6.654 1.301l-29.949 40.177a5.034 5.034 0 0 0-0.916 3.931 5.038 5.038 0 0 0 2.26 3.344 7256.208 7256.208 0 0 1 89.484 57.628c-51.659 22.444-96.553 41.141-133.603 55.641V500.973h247.032v13.949a5.043 5.043 0 0 0 5.043 5.044h54.784a5.042 5.042 0 0 0 5.043-5.044V181.835a5.043 5.043 0 0 0-5.043-5.044H276.7731a5.044 5.044 0 0 0-5.044 5.044v485.022c0 18.217-6.426 33.278-19.644 46.043a5.044 5.044 0 0 0-0.512 6.68l41.637 54.781z m291.153-406.329v73.183H337.3311v-73.183h247.032z m-247.032-58.299V236.55h247.032v73.183H337.3311z"  p-id="10215"></path><path d="M860.6841 462.304V406.05h-67.142c-14.518 0-21.775-6.634-21.775-19.961 1.191-10.888 8.449-17.522 21.775-19.961h67.142v-30.849h-67.142c-14.518 0-21.775-6.634-21.775-19.96 1.191-10.888 8.449-17.522 21.775-19.96h38.105L773.5811 213.7c-6.068-4.82-8.479-11.483-7.259-19.961 1.19-20.557 12.702-32.039 34.478-34.478 10.888 1.219 19.961 6.067 27.22 14.517l67.142 96.176 67.141-96.176c6.039-8.449 15.112-13.297 27.22-14.517 20.556 2.438 32.04 13.921 34.479 34.478 0 8.478-2.438 15.141-7.259 19.961l-58.068 81.659h38.107c12.078 2.438 19.336 9.073 21.775 19.96-1.22 13.326-8.479 19.96-21.775 19.96H929.6401v30.849h67.142c12.078 2.439 19.336 9.074 21.775 19.961-1.22 13.327-8.479 19.961-21.775 19.961H929.6401v56.254c-1.219 20.584-12.702 30.848-34.478 30.848-22.996 0-34.478-10.264-34.478-30.848z"  p-id="10216"></path></svg>